<svg width="24" height="24" viewBox="0 0 24 24" xmlns="http://www.w3.org/2000/svg" xmlns:xlink="http://www.w3.org/1999/xlink"><title>atoms/icons/ui/aeternity</title><defs><path d="M18.214 6.054c3.184 0 5.774 2.561 5.774 5.709 0 .23-.014.46-.042.688H17.13v-1.377h5.414c-.335-2.062-2.148-3.643-4.33-3.643-1.899 0-3.255 1.374-4.531 3.12l-.826-1.207c1.393-1.82 3.005-3.29 5.357-3.29zm0 10.04a4.398 4.398 0 0 0 3.855-2.266h1.528a5.782 5.782 0 0 1-5.383 3.643c-2.847 0-4.61-2.057-6.633-5.097-2.023-3.04-3.473-4.943-5.795-4.943-2.419 0-4.386 1.943-4.386 4.332 0 2.388 1.967 4.332 4.386 4.332 1.898 0 3.254-1.373 4.53-3.118l.82 1.213c-1.392 1.817-3.002 3.281-5.35 3.281-3.184 0-5.774-2.56-5.774-5.708s2.59-5.709 5.774-5.709c2.847 0 4.684 2.15 6.629 5.092 1.945 2.943 3.477 4.949 5.8 4.949z" id="a"/></defs><use fill="#000" xlink:href="#a" fill-rule="evenodd"/></svg>