<svg width="24" height="24" viewBox="0 0 24 24" xmlns="http://www.w3.org/2000/svg" xmlns:xlink="http://www.w3.org/1999/xlink"><title>atoms/icons/ui/eye-hide</title><defs><path d="M4.553 5.967L2.101 3.515A1 1 0 0 1 3.515 2.1l2.661 2.66C7.95 3.635 9.893 3 12 3c3.38 0 6.339 1.632 8.855 4.316a20.492 20.492 0 0 1 2.25 2.891c.385.596.649 1.065.79 1.346a1 1 0 0 1 0 .894c-.141.281-.405.75-.79 1.346a20.492 20.492 0 0 1-2.25 2.89c-.455.486-.924.937-1.408 1.35l2.452 2.452a1 1 0 1 1-1.414 1.414l-2.661-2.66C16.05 20.365 14.107 21 12 21c-3.38 0-6.339-1.632-8.855-4.316a20.492 20.492 0 0 1-2.25-2.891 15.188 15.188 0 0 1-.79-1.346 1 1 0 0 1 0-.894c.141-.281.405-.75.79-1.346a20.492 20.492 0 0 1 2.25-2.89c.455-.486.924-.937 1.408-1.35zM16.366 17.78l-2.334-2.334a4 4 0 0 1-5.478-5.478l-2.581-2.58c-.469.39-.925.823-1.368 1.296A18.513 18.513 0 0 0 2.14 12a18.513 18.513 0 0 0 2.464 3.316C6.776 17.632 9.255 19 12 19c1.542 0 3-.431 4.366-1.22zm1.661-1.167c.469-.39.925-.824 1.368-1.297A18.513 18.513 0 0 0 21.86 12a18.513 18.513 0 0 0-2.464-3.316C17.224 6.368 14.745 5 12 5c-1.542 0-3 .431-4.366 1.22l2.334 2.334a4 4 0 0 1 5.478 5.478l2.581 2.58zm-7.96-5.131a2.003 2.003 0 0 0 2.451 2.45l-2.45-2.45zm1.415-1.414l2.45 2.45a2.003 2.003 0 0 0-2.45-2.45z" id="a"/></defs><use fill="#000" fill-rule="nonzero" xlink:href="#a"/></svg>