<svg width="24" height="24" xmlns="http://www.w3.org/2000/svg" xmlns:xlink="http://www.w3.org/1999/xlink"><defs><path d="M18.007 13H5.991l-.008 7.058c0 .52-.445.943-.992.942-.548 0-.992-.423-.991-.944l.008-7.928a1.01 1.01 0 0 1 0-.258l.009-7.928c0-.52.445-.943.992-.942.548 0 .992.423.991.944L5.993 11h12.016l.008-7.058c0-.52.445-.943.992-.942.548 0 .992.423.991.944l-.008 7.928a1.01 1.01 0 0 1 0 .258l-.009 7.928c0 .52-.445.943-.992.942-.548 0-.992-.423-.991-.944L18.007 13z" id="a"/></defs><use xlink:href="#a"/></svg>