<?xml version="1.0" encoding="UTF-8"?>
<svg width="24px" height="24px" viewBox="0 0 24 24" version="1.1" xmlns="http://www.w3.org/2000/svg" xmlns:xlink="http://www.w3.org/1999/xlink">
    <!-- Generator: Sketch 52.2 (67145) - http://www.bohemiancoding.com/sketch -->
    <title>atoms/icons/ui/sign-out</title>
    <desc>Created with Sketch.</desc>
    <defs>
        <path d="M17.6577778,7.34699132 C17.2673173,6.95640327 17.2674206,6.3232383 17.6580087,5.93277778 C18.0485967,5.54231725 18.6817617,5.54242063 19.0722222,5.93300868 C22.976527,9.83858854 22.9758378,16.1696447 19.070683,20.0743745 C15.1655281,23.9791043 8.8344719,23.9791043 4.92931703,20.0743745 C1.02416217,16.1696447 1.02347305,9.83858854 4.92777778,5.93300868 C5.3182383,5.54242063 5.95140327,5.54231725 6.34199132,5.93277778 C6.73257937,6.3232383 6.73268275,6.95640327 6.34222222,7.34699132 C3.21877844,10.4714552 3.21932974,15.5363001 6.34345363,18.660084 C9.46757752,21.7838679 14.5324225,21.7838679 17.6565464,18.660084 C20.7806703,15.5363001 20.7812216,10.4714552 17.6577778,7.34699132 Z M11.005,2 C11.005,1.44771525 11.4527153,1 12.005,1 C12.5572848,1 13.005,1.44771525 13.005,2 L13.005,12 C13.005,12.5522847 12.5572848,13 12.005,13 C11.4527153,13 11.005,12.5522847 11.005,12 L11.005,2 Z" id="path-1"></path>
    </defs>
    <g id="atoms/icons/ui/sign-out" stroke="none" stroke-width="1" fill="none" fill-rule="evenodd">
        <mask id="mask-2" fill="white">
            <use xlink:href="#path-1"></use>
        </mask>
        <use id="sign-out" fill="#000000" fill-rule="nonzero" xlink:href="#path-1"></use>
    </g>
</svg>